HIERARCHY
ROOT Hips
{
  OFFSET 54.2096 95.7062 31.4457
  CHANNELS 6 Xposition Yposition Zposition Zrotation Xrotation Yrotation
  JOINT spine
  {
    OFFSET 0 7.96568 0.458067
    CHANNELS 3 Zrotation Xrotation Yrotation
    JOINT spine1
    {
      OFFSET 0 10.2431 0
      CHANNELS 3 Zrotation Xrotation Yrotation
      JOINT spine2
      {
        OFFSET 0 9.81475 0
        CHANNELS 3 Zrotation Xrotation Yrotation
        JOINT Neck
        {
          OFFSET 0 25.1986 1.20138
          CHANNELS 3 Zrotation Xrotation Yrotation
          JOINT Head
          {
            OFFSET 0 7.61315 0
            CHANNELS 3 Zrotation Xrotation Yrotation
            End Site
            {
              OFFSET 0 18.4281 -6.07733
            }
          }
        }
        JOINT RightShoulder
        {
          OFFSET -4.1327 10.5992 -0.575451
          CHANNELS 3 Zrotation Xrotation Yrotation
          JOINT RightArm
          {
            OFFSET 0 13.9018 0
            CHANNELS 3 Zrotation Xrotation Yrotation
            JOINT RightArmRoll
            {
              OFFSET 0 7.01788 0
              CHANNELS 3 Zrotation Xrotation Yrotation
              JOINT RightForeArm
              {
                OFFSET 0 20.4406 0
                CHANNELS 3 Zrotation Xrotation Yrotation
                JOINT RightForeArmRoll
                {
                  OFFSET 0 7.87515 0
                  CHANNELS 3 Zrotation Xrotation Yrotation
                  JOINT RightHand
                  {
                    OFFSET 0 15.8037 0
                    CHANNELS 3 Zrotation Xrotation Yrotation
                    End Site
                    {
                      OFFSET 0 0 0
                    }
                  }
                }
              }
            }
          }
        }
        JOINT LeftShoulder
        {
          OFFSET 4.1327 10.5992 -0.575451
          CHANNELS 3 Zrotation Xrotation Yrotation
          JOINT LeftArm
          {
            OFFSET 0 13.9018 0
            CHANNELS 3 Zrotation Xrotation Yrotation
            JOINT LeftArmRoll
            {
              OFFSET 0 7.01789 0
              CHANNELS 3 Zrotation Xrotation Yrotation
              JOINT LeftForeArm
              {
                OFFSET 0 20.4406 0
                CHANNELS 3 Zrotation Xrotation Yrotation
                JOINT LeftForeArmRoll
                {
                  OFFSET 0 7.87515 0
                  CHANNELS 3 Zrotation Xrotation Yrotation
                  JOINT LeftHand
                  {
                    OFFSET 0 15.8037 0
                    CHANNELS 3 Zrotation Xrotation Yrotation
                    End Site
                    {
                      OFFSET 0 0 0
                    }
                  }
                }
              }
            }
          }
        }
      }
    }
  }
  JOINT RightUpLeg
  {
    OFFSET -7.06048 -1.2947 -1.0861
    CHANNELS 3 Zrotation Xrotation Yrotation
    JOINT RightUpLegRoll
    {
      OFFSET 0 18.5308 0
      CHANNELS 3 Zrotation Xrotation Yrotation
      JOINT RightLeg
      {
        OFFSET 0 -22.9476 0
        CHANNELS 3 Zrotation Xrotation Yrotation
        JOINT RightLegRoll
        {
          OFFSET 0 23.0226 0
          CHANNELS 3 Zrotation Xrotation Yrotation
          JOINT RightFoot
          {
            OFFSET 0 19.1625 0
            CHANNELS 3 Zrotation Xrotation Yrotation
            JOINT RightToeBase
            {
              OFFSET 0 16.0188 0
              CHANNELS 3 Zrotation Xrotation Yrotation
              End Site
              {
                OFFSET 0.00678979 7.75782 -0.894207
              }
            }
          }
        }
      }
    }
  }
  JOINT LeftUpLeg
  {
    OFFSET 7.06048 -1.2947 -1.0861
    CHANNELS 3 Zrotation Xrotation Yrotation
    JOINT LeftUpLegRoll
    {
      OFFSET 0 18.5309 0
      CHANNELS 3 Zrotation Xrotation Yrotation
      JOINT LeftLeg
      {
        OFFSET 0 22.9475 0
        CHANNELS 3 Zrotation Xrotation Yrotation
        JOINT LeftLegRoll
        {
          OFFSET 0 23.2355 0
          CHANNELS 3 Zrotation Xrotation Yrotation
          JOINT LeftFoot
          {
            OFFSET 0 18.9496 0
            CHANNELS 3 Zrotation Xrotation Yrotation
            JOINT LeftToeBase
            {
              OFFSET 0 16.0188 0
              CHANNELS 3 Zrotation Xrotation Yrotation
              End Site
              {
                OFFSET -0.0304289 7.75781 -0.894207
              }
            }
          }
        }
      }
    }
  }
}
MOTION
Frames: 4
Frame Time: 0.00208333
54.2937 56.8099 -12.8159 5.52482 2.33699 5.7675 -0.88906 -0.420316 -0.918444 -1.7676 3.17507 -1.72429 -1.74917 4.8194 -1.69651 -5.47486 12.4096 -2.07923 4.73782 4.48522 -3.25881 63.4785 -0.672025 -0.958349 111.735 32.6421 -21.783 -3.54783e-006 8.23045e-007 -4.76957e-006 23.7436 41.9672 -11.1725 -5.04119e-006 1.08032e-006 -3.0119 8.02907 -4.95098 0.697459 -70.3335 -3.01261 2.83244 -102.542 36.365 21.7489 -1.47445e-006 3.57187e-006 3.09055e-006 -28.5127 37.8931 11.1405 8.00942e-006 7.86084e-006 3.01413 -8.02966 -4.9509 -0.697294 90.1717 78.7133 81.9264 180 1.52576e-005 179.27 -137.805 79.393 139.74 -4.57882e-006 -7.35185e-006 1.03911 -8.19531 62.2748 16.5982 8.1325 25.2354 -3.48256 -167.74 86.7583 -15.1715 4.57705e-006 1.05463e-005 -1.38285 15.4752 -84.1051 16.7502 6.08397e-008 -3.05059e-006 -1.67004 12.3332 62.7281 -16.3474 -8.13654 25.2334 3.48673 
54.2959 56.8116 -12.8145 5.52859 2.35617 5.76755 -0.889334 -0.422693 -0.918384 -1.76907 3.17033 -1.72441 -1.75063 4.81466 -1.69658 -5.4819 12.4164 -2.07664 4.7458 4.48616 -3.25791 63.4703 -0.673052 -0.958013 111.741 32.6314 -21.7849 -3.54783e-006 8.23045e-007 -4.76957e-006 23.7458 41.9487 -11.1667 -5.04119e-006 1.08032e-006 -3.0119 8.02907 -4.95098 0.697459 -70.3426 -3.00668 2.83028 -102.511 36.3628 21.7464 -1.47445e-006 3.57187e-006 3.09055e-006 -28.532 37.9016 11.1493 8.00942e-006 7.86084e-006 3.01413 -8.02966 -4.9509 -0.697294 90.0572 78.7133 82.0397 180 1.52576e-005 179.27 -137.796 79.3959 139.731 -4.57882e-006 -7.35185e-006 1.04035 -8.20188 62.2791 16.5993 8.1325 25.2354 -3.48256 -167.714 86.7647 -15.2009 4.57705e-006 1.05463e-005 -1.38255 15.4084 -84.0946 16.687 6.08397e-008 -3.05059e-006 -1.67008 12.3327 62.7284 -16.3474 -8.13654 25.2334 3.48673 
54.2892 56.8027 -12.8165 5.53331 2.37449 5.76753 -0.889742 -0.424934 -0.918325 -1.77083 3.16586 -1.72451 -1.75239 4.81019 -1.69663 -5.48954 12.4236 -2.074 4.75439 4.48691 -3.25709 63.4619 -0.673781 -0.957476 111.747 32.6206 -21.7866 -3.54783e-006 8.23045e-007 -4.76957e-006 23.7478 41.9293 -11.1605 -5.04119e-006 1.08032e-006 -3.0119 8.02907 -4.95098 0.697459 -70.352 -3.00083 2.82817 -102.479 36.3609 21.7431 -1.47445e-006 3.57187e-006 3.09055e-006 -28.5506 37.9086 11.1573 8.00942e-006 7.86084e-006 3.01413 -8.02966 -4.9509 -0.697294 89.9453 78.713 82.1498 180 1.52576e-005 179.27 -137.786 79.3986 139.722 -4.57882e-006 -7.35185e-006 1.04163 -8.20866 62.2834 16.6004 8.1325 25.2354 -3.48256 -167.7 86.7695 -15.2191 4.57705e-006 1.05463e-005 -1.3823 15.3381 -84.0837 16.6207 6.08397e-008 -3.05059e-006 -1.67012 12.3323 62.7289 -16.3476 -8.13654 25.2334 3.48673 
54.2865 56.8016 -12.818 5.53868 2.3922 5.76748 -0.890244 -0.427079 -0.918267 -1.77281 3.16159 -1.72461 -1.75436 4.80592 -1.69668 -5.49759 12.431 -2.07133 4.76342 4.48754 -3.25633 63.4533 -0.674302 -0.9568 111.753 32.6099 -21.7881 -3.54783e-006 8.23045e-007 -4.76957e-006 23.7497 41.9091 -11.1541 -5.04119e-006 1.08032e-006 -3.0119 8.02907 -4.95098 0.697459 -70.3614 -2.99503 2.8261 -102.449 36.3593 21.7392 -1.47445e-006 3.57187e-006 3.09055e-006 -28.5689 37.9147 11.1648 8.00942e-006 7.86084e-006 3.01413 -8.02966 -4.9509 -0.697294 89.8352 78.7125 82.2575 180 1.52576e-005 179.27 -137.775 79.4011 139.712 -4.57882e-006 -7.35185e-006 1.04295 -8.2156 62.2878 16.6016 8.1325 25.2354 -3.48256 -167.695 86.7732 -15.2294 4.57705e-006 1.05463e-005 -1.38208 15.2654 -84.0725 16.5522 6.08397e-008 -3.05059e-006 -1.67018 12.3319 62.7297 -16.3478 -8.13654 25.2334 3.48673 
